# xmcd CD database file
#
# Track frame offsets:
#	150
#	22300
#	46768
#	71612
#	93188
#	119157
#	144277
#	168124
#	187680
#	218255
#
# Disc length: 3219 seconds
#
# Revision: 0
# Processed by: cddbd v1.5.2PL0 Copyright (c) Steve Scherf et al.
# Submitted via: CDex 1.70beta2
#
DISCID=7d0c910a
DTITLE=Dianne Reeves - When You know
DYEAR=2008
DGENRE=Jazz
TTITLE0=Just my imagination
TTITLE1=Over the week end
TTITLE2=Lovin' you
TTITLE3=I'm in love again
TTITLE4=Midnight sun
TTITLE5=Once I loved
TTITLE6=Windmills of your mind
TTITLE7=Social call
TTITLE8=When you know
TTITLE9=Today will be a good day
EXTD=YEAR: 2008
EXTT0=
EXTT1=
EXTT2=
EXTT3=
EXTT4=
EXTT5=
EXTT6=
EXTT7=
EXTT8=
EXTT9=
PLAYORDER=
